<svg version="1.2" baseProfile="tiny-ps" xmlns="http://www.w3.org/2000/svg" viewBox="0 0 1083 785" width="1083" height="785">
	<style>
		tspan { white-space:pre }
		.shp0 { fill: #2e2114 }
	</style>
	<g id="panthererose">
		<path id="sourciledroit" class="shp0" d="M710.45 31.8C711.17 32.47 712.11 32.84 713.08 32.84C713.16 32.84 713.23 32.84 713.31 32.84C718.14 32.55 722.96 32.4 727.6 32.4C795.27 32.4 837.74 62.45 844.12 114.88C844.35 116.77 845.97 118.22 847.89 118.24L856.57 118.32L856.6 118.32C857.67 118.32 858.69 117.89 859.41 117.1C860.14 116.33 860.51 115.26 860.43 114.2C857.84 79.83 842.88 50.86 817.19 30.41C792.22 10.52 758.83 0 720.7 0C718.12 0 715.5 0.04 712.89 0.14C710.82 0.21 709.19 1.91 709.19 3.98L709.25 29.01C709.25 30.08 709.68 31.08 710.45 31.8Z" />
		<path id="sourcilgauche" class="shp0" d="M217.37 118.32L217.41 118.32L226.08 118.24C228.02 118.23 229.62 116.78 229.85 114.86C236.23 62.46 278.7 32.4 346.38 32.4C351.01 32.4 355.83 32.56 360.68 32.83C360.76 32.85 360.81 32.85 360.89 32.85C361.88 32.85 362.81 32.48 363.52 31.8C364.29 31.07 364.74 30.06 364.74 29.02L364.78 3.99C364.8 1.92 363.15 0.22 361.09 0.14C358.49 0.04 355.87 0 353.28 0C315.12 0 281.76 10.5 256.78 30.39C231.09 50.86 216.15 79.84 213.54 114.21C213.46 115.27 213.83 116.33 214.56 117.1C215.3 117.88 216.3 118.32 217.37 118.32Z" />
		<path id="panthere" fill-rule="evenodd" class="shp0" d="M983.3 323.72C975.99 322.27 969.03 319.87 962.52 316.68C964.39 323.47 965.63 330.35 966.21 337.31C1004.91 343.41 1031.56 354.06 1048.81 363.54C1050.64 364.54 1051.32 366.82 1050.35 368.66L1041.23 386.13C1040.55 387.43 1039.22 388.18 1037.83 388.18C1037.27 388.18 1036.69 388.07 1036.12 387.8C1013.93 376.76 990.33 368.27 965.49 362.3C962.73 382.19 954.78 402.18 942.1 421.29C999.82 440.8 1033.69 465.19 1052.48 483.25C1053.99 484.7 1054.06 487.07 1052.65 488.6L1039.29 503.08C1038.54 503.91 1037.52 504.32 1036.47 504.32C1035.56 504.32 1034.66 504.01 1033.94 503.37C1003.38 476.31 968.01 454.83 928.55 439.25C906.54 465.11 875.88 488 839.33 505.73C823.57 513.38 806.85 520.36 789.38 526.64C773.22 565.19 750.31 606.63 722.92 645.46C694.7 685.51 664.02 719.36 634.22 743.31C603.12 768.29 573.52 782.3 546.19 784.99L546.19 785.49L544.27 785.49C543.13 785.49 541.99 785.45 540.87 785.41L540.45 785.39L540.02 785.41C538.92 785.45 537.76 785.49 536.62 785.49L534.71 785.49L534.71 784.99C507.37 782.3 477.78 768.29 446.68 743.31C416.89 719.36 386.21 685.51 357.97 645.46C330.33 606.24 307.21 564.35 291.03 525.48C274.72 519.51 259.08 512.92 244.27 505.73C206.37 487.34 174.82 463.43 152.67 436.39C110.22 452.14 72.32 474.63 39.84 503.37C39.13 504.01 38.22 504.32 37.31 504.32C36.28 504.32 35.24 503.91 34.49 503.08L21.13 488.6C19.72 487.07 19.8 484.7 21.3 483.25C54.8 451.06 101.54 430.84 139.78 418.66C127.64 399.64 120.21 379.81 117.84 360.15C89.5 366.15 62.69 375.35 37.66 387.8C37.1 388.07 36.52 388.18 35.96 388.18C34.56 388.18 33.23 387.43 32.55 386.13L23.43 368.66C22.46 366.82 23.16 364.54 24.98 363.54C53.1 348.11 86.21 339.95 117.51 335.89C118.13 329.36 119.36 322.89 121.14 316.47C114.51 319.77 107.42 322.23 99.96 323.72C94.41 324.84 88.86 325.38 83.33 325.38C66.96 325.38 50.98 320.57 37.08 311.27C18.52 298.86 5.94 279.9 1.61 257.9C-2.72 235.9 1.76 213.54 14.21 194.92C26.68 176.31 45.64 163.65 67.62 159.26C89.62 154.87 111.94 159.3 130.5 171.71C149.06 184.13 161.66 203.08 165.99 225.1C167.32 231.9 167.81 238.72 167.48 245.49C187.52 226.97 213.25 209.92 244.27 194.86C250.32 191.92 256.57 189.1 262.93 186.36C261.32 182.53 259.97 178.53 258.89 174.39C247.12 128.62 274.66 81.82 320.3 70.09C365.92 58.34 412.64 86.02 424.41 131.79C425.36 135.42 426.01 139.08 426.46 142.71C463.53 137.59 502.25 134.94 541.8 134.94C580.48 134.94 618.39 137.47 654.71 142.36C655.15 138.84 655.81 135.31 656.72 131.79C668.49 86.02 715.21 58.34 760.83 70.09C806.47 81.82 834.01 128.62 822.24 174.39C821.25 178.22 820 181.89 818.55 185.45C825.66 188.46 832.6 191.6 839.33 194.86C870.16 209.82 895.79 226.76 915.76 245.16C915.47 238.51 915.95 231.78 917.28 225.1C921.59 203.08 934.2 184.13 952.75 171.71C971.31 159.3 993.64 154.87 1015.64 159.26C1037.61 163.65 1056.6 176.31 1069.04 194.92C1094.79 233.39 1084.55 285.6 1046.18 311.27C1032.3 320.57 1016.29 325.38 999.92 325.38C994.41 325.38 988.84 324.84 983.3 323.72ZM903.66 430.38C876.19 421.62 846.48 415.4 814.87 411.76C815.13 415.75 815.26 419.81 815.26 423.92C815.26 442.81 810.74 465.95 802.52 491.36C812.03 487.52 821.25 483.46 830.13 479.15C860.3 464.52 884.98 448.05 903.66 430.38ZM794.4 341.67C824.02 336.22 860.22 332.26 897.49 332.26L897.51 332.26C914.69 332.26 930.39 333.09 944.69 334.54C941.99 314.09 932.36 294.06 915.91 274.85C896 251.62 867.14 230.72 830.13 212.76C823.22 209.4 816.09 206.19 808.79 203.12C788.76 230.89 753.13 245.12 718.11 236.09C682.77 227.01 658.3 196.89 654.51 162.52C631.2 159.32 607.19 157.07 582.7 155.91C598.75 165.44 615.41 180.09 631.2 200.33C645.51 218.66 657.08 237.89 665.43 256.62C727.1 272.43 770.69 301.18 794.4 341.67ZM794.17 423.92C794.17 419.09 793.98 414.37 793.61 409.72C783.6 408.96 773.43 408.42 763.09 408.15C762.01 408.13 761 407.65 760.29 406.83C759.59 406.02 759.26 404.96 759.38 403.88L760.05 398C760.27 396.18 761.72 394.77 763.53 394.62C769.2 394.12 775.71 393.85 782.88 393.85L782.9 395.78L782.9 393.85C785.72 393.85 788.62 393.9 791.54 393.98C789.4 382.17 785.94 371.06 781.2 360.69C769.7 362.8 758.04 365.26 746.29 368.12C746 368.18 745.69 368.21 745.38 368.21C744.69 368.21 743.99 368.02 743.37 367.65C742.5 367.11 741.88 366.26 741.65 365.26L740.26 359.36C739.82 357.47 740.86 355.55 742.68 354.88C750.74 351.92 761.16 348.88 773.32 346.04C763.21 329.82 749.52 315.87 732.37 304.54C715.85 293.62 696.19 284.73 673.55 277.87C677.98 291.8 680.36 305.12 680.36 317.16L680.22 317.16C680.32 328.94 677.11 342.76 669.92 358.95C630.85 446.98 576.29 495.64 538.92 495.73L538.92 495.75L547.54 495.75L547.54 536.94C630.74 536.38 709.84 523.9 776.41 501.11C787.77 471.71 794.17 444.9 794.17 423.92ZM761.18 535.96C695.09 556.02 619.72 566.75 541.8 566.75C462.64 566.75 386.1 555.68 319.27 535.01C333.64 564.78 352.14 595.82 373.55 625.26C399.82 661.39 428.33 692.18 456 714.32C486.79 738.96 515.22 752.11 540.45 753.4C565.69 752.11 594.11 738.96 624.92 714.32C652.58 692.18 681.07 661.39 707.36 625.26C728.53 596.13 746.87 565.44 761.18 535.96ZM304.08 500.02C369.76 522.95 447.9 535.78 530.28 536.89L530.28 495.75L538.8 495.75L538.8 495.73C501.42 495.64 446.85 446.98 407.79 358.95C399.13 339.41 396.23 323.33 397.97 310.13C398.66 300.31 400.79 289.77 404.19 278.85C382.87 285.56 364.27 294.12 348.52 304.54C330.87 316.22 316.84 330.68 306.65 347.55C316.18 349.93 324.44 352.42 331.1 354.88C332.92 355.55 333.97 357.47 333.52 359.36L332.13 365.26C331.9 366.26 331.28 367.11 330.41 367.65C329.79 368.02 329.09 368.21 328.4 368.21C328.09 368.21 327.8 368.18 327.49 368.12C317.96 365.8 308.51 363.75 299.13 361.93C294.71 371.91 291.44 382.58 289.37 393.86C289.87 393.86 290.4 393.85 290.9 393.85C298.07 393.85 304.58 394.12 310.27 394.62C312.06 394.77 313.51 396.18 313.73 398L314.4 403.88C314.52 404.96 314.19 406.02 313.49 406.83C312.78 407.65 311.77 408.13 310.69 408.15C302.81 408.36 295.03 408.73 287.34 409.23C286.94 414.03 286.72 418.92 286.72 423.92C286.72 444.64 292.97 471.05 304.08 500.02ZM285.8 342.89C308.93 302.47 351.67 273.59 412.25 257.45C420.62 238.47 432.34 218.93 446.85 200.33C462.45 180.35 478.9 165.77 494.79 156.24C471.54 157.52 448.73 159.74 426.56 162.89C422.65 197.11 398.24 227.05 363.02 236.09C328.34 245.02 293.06 231.16 272.94 203.91C266.29 206.75 259.78 209.69 253.48 212.76C216.46 230.72 187.6 251.62 167.69 274.85C151.47 293.79 141.86 313.53 139 333.67C152.3 332.65 164.94 332.26 176.31 332.26C216.28 332.26 255.08 336.82 285.8 342.89ZM278.2 358.24C251.12 353.97 224.89 351.82 199.8 351.82C178.77 351.82 158.35 353.37 138.64 356.36C140.76 375.5 149.04 394.17 162.99 411.9C197.42 402.78 234.86 396.63 267.9 394.6C269.94 381.71 273.39 369.59 278.2 358.24ZM277.97 490.11C270 465.17 265.63 442.5 265.63 423.92C265.63 419.53 265.81 415.22 266.08 410.99C234.67 414.18 205.03 419.88 177.59 428.08C196.53 446.64 221.99 463.88 253.48 479.15C261.36 482.98 269.54 486.63 277.97 490.11ZM272.23 170.57C273.17 174.24 274.43 177.7 275.92 180.96C290.78 175.05 306.38 169.68 322.56 164.86C321.19 162.04 320.4 158.89 320.4 155.55C320.4 143.77 329.93 134.24 341.7 134.24C353.02 134.24 362.26 143.1 362.92 154.27C379.22 150.54 395.99 147.33 413.16 144.66C412.89 141.15 412.31 137.59 411.38 134.01C401.85 97 362.57 81.45 325.65 90.95C288.75 100.46 262.72 133.55 272.23 170.57ZM530.42 155.02C509.11 159.51 486.42 180.46 462.63 210.95C452.3 224.15 443.89 238.01 437.34 251.69C466.38 246.03 498.87 242.92 534.71 242.45L534.71 242.38L536.62 242.38C537.45 242.38 538.26 242.38 539.09 242.4L541.82 242.4C542.63 242.38 543.44 242.38 544.27 242.38L546.19 242.41L546.19 242.45C580.67 242.9 612.05 245.8 640.21 251.06C633.81 237.58 625.58 223.95 615.43 210.95C591.54 180.33 567.93 159.33 547.1 154.97C545.34 154.95 543.58 154.93 541.8 154.93C537.99 154.93 534.2 154.97 530.42 155.02ZM667.99 144.28C685.29 146.92 702.2 150.09 718.63 153.81C719.52 142.87 728.66 134.24 739.84 134.24C751.61 134.24 761.14 143.77 761.14 155.55C761.14 158.68 760.44 161.63 759.22 164.32C775.31 169.06 790.79 174.33 805.6 180.15C806.91 177.12 808.03 173.93 808.9 170.57C818.43 133.55 792.37 100.46 755.47 90.95C718.55 81.45 679.27 97 669.75 134.01C668.86 137.45 668.28 140.89 667.99 144.28ZM944.75 357.97C922.08 353.91 898.46 351.82 873.99 351.82C850.96 351.82 826.99 353.64 802.27 357.23C807.37 369.01 810.99 381.65 813.08 395.1C846.25 397.69 883.15 404.17 916.72 413.5C917.44 413.7 918.13 413.91 918.85 414.1C933.48 396.22 942.26 377.32 944.75 357.97ZM395.3 389.02C395.3 400.07 386.33 409.04 375.28 409.04C364.22 409.04 355.25 400.07 355.25 389.02C355.25 377.96 364.22 368.99 375.28 368.99C386.33 368.99 395.3 377.96 395.3 389.02ZM359.69 459.23C359.69 470.29 350.72 479.25 339.66 479.25C328.61 479.25 319.64 470.29 319.64 459.23C319.64 448.17 328.61 439.2 339.66 439.2C350.72 439.2 359.69 448.17 359.69 459.23ZM437.59 479.25C437.59 490.31 428.63 499.26 417.57 499.26C406.51 499.26 397.54 490.31 397.54 479.25C397.54 468.19 406.51 459.22 417.57 459.22C428.63 459.22 437.59 468.19 437.59 479.25ZM720.4 389.02C720.4 400.07 711.43 409.04 700.38 409.04C689.32 409.04 680.35 400.07 680.35 389.02C680.35 377.96 689.32 368.99 700.38 368.99C711.43 368.99 720.4 377.96 720.4 389.02ZM756.87 459.23C756.87 470.29 747.9 479.25 736.84 479.25C725.78 479.25 716.81 470.29 716.81 459.23C716.81 448.17 725.78 439.2 736.84 439.2C747.9 439.2 756.87 448.17 756.87 459.23ZM678.96 479.25C678.96 490.31 669.99 499.26 658.93 499.26C647.88 499.26 638.91 490.31 638.91 479.25C638.91 468.19 647.88 459.22 658.93 459.22C669.99 459.22 678.96 468.19 678.96 479.25ZM538.9 495.75L538.8 495.75C538.82 495.75 538.83 495.75 538.84 495.75C538.86 495.75 538.87 495.75 538.88 495.75L538.9 495.75Z" />
		<path id="oeil-fermer" class="shp0" d="M361.19 229.33C320.6 239.47 279.58 214.86 269.44 174.26C259.3 133.66 283.91 92.65 324.51 82.51C365.1 72.36 406.12 96.98 416.26 137.57C426.41 178.17 401.79 219.18 361.19 229.33Z" />
		<path id="oeil-demi" class="shp0" d="M331.19 110.33C290.6 120.47 275.66 188.45 274.44 185.26C254.58 133.48 283.91 93.65 324.51 83.51C365.1 73.36 411.24 104.03 416.26 145.57C417.58 156.48 371.79 100.18 331.19 110.33Z" />
	</g>
</svg>
